<svg className="blob" id="blobSvg1" version="1.1" viewBox="0 0 500 500" xmlns="http://www.w3.org/2000/svg" >
    <defs>
        <linearGradient id="gradient2" x1="0%" x2="0%" y1="0%" y2="100%">
            <stop
                offset="0%"
                style="stop-color: rgb(138, 79, 255)"
            ></stop>
            <stop
                offset="100%"
                style="stop-color: rgb(109, 241, 201)"
            ></stop>
        </linearGradient>
    </defs>
    <path fill="url(#gradient2)" id="blob" style="opacity: 1" 
    d="M411.71818,339.87391Q393.61186,429.74783,302.23794,426.16285Q210.86403,422.57787,122.32727,388.31581Q33.79051,354.05375,61.55534,263.35692Q89.32016,172.66008,145.95613,107.46324Q202.59209,42.2664,289.95613,66.5581Q377.32016,90.8498,403.57233,170.4249Q429.82451,250,411.71818,339.87391Z"
    ></path>
    <!-- d="M429.79847,339.54154Q392.67727,429.08308,294.97368,455.00137Q197.27008,480.91966,143.94598,403.56786Q90.62188,326.21607,83.52769,246.22992Q76.43351,166.24376,136.8518,92.77008Q197.27008,19.29641,287.1482,55Q377.02632,90.70359,421.97299,170.3518Q466.91966,250,429.79847,339.54154Z" -->
</svg>